<svg t="1699973998769" class="icon" viewBox="0 0 1024 1024" version="1.1" xmlns="http://www.w3.org/2000/svg" p-id="1502" width="240" height="240"><path d="M304 960c-5.568 0-11.04-1.456-15.872-4.224l-208-118.88A31.904 31.904 0 0 1 64 809.12V571.424a32 32 0 0 1 64 0V790.56l176 100.608 176-100.608V571.424a32 32 0 0 1 64 0V809.12a32 32 0 0 1-16.128 27.776l-208 118.88A31.968 31.968 0 0 1 304 960z" fill="#0066FF" p-id="1503"></path><path d="M496.128 599.2L304 489.44 111.872 599.232a32 32 0 0 1-31.744-55.552l208-118.848a31.936 31.936 0 0 1 31.744 0l208 118.848a32 32 0 0 1-15.904 59.744c-5.552 0-11.024-1.44-15.84-4.224z" fill="#178BFF" p-id="1504"></path><path d="M304 801.536a32 32 0 0 1-32-32V690.24a32 32 0 1 1 64 0v79.296a32 32 0 0 1-32 32z" fill="#1DDDCB" p-id="1505"></path><path d="M303.968 722.24a32 32 0 0 1-15.36-3.936l-77.632-42.624a32.016 32.016 0 0 1 30.816-56.128l77.632 42.624a32 32 0 0 1-15.456 60.064z" fill="#1DDDCB" p-id="1506"></path><path d="M304.032 722.24a32 32 0 0 1-15.424-60.064l77.6-42.592a32 32 0 1 1 30.816 56.096l-77.6 42.592a31.872 31.872 0 0 1-15.392 3.968z" fill="#1DDDCB" p-id="1507"></path><path d="M720 960c-5.568 0-11.04-1.44-15.872-4.224l-208-118.88A31.904 31.904 0 0 1 480 809.12V571.424a32 32 0 0 1 64 0V790.56l176 100.608 176-100.608V571.424a32 32 0 0 1 64 0V809.12a32 32 0 0 1-16.128 27.776l-208 118.88A31.872 31.872 0 0 1 720 960z" fill="#0066FF" p-id="1508"></path><path d="M927.968 603.424c-5.552 0-11.024-1.44-15.84-4.224L720 489.44l-192.128 109.792a32 32 0 0 1-31.744-55.552l208-118.848a31.936 31.936 0 0 1 31.744 0l208 118.848a32 32 0 0 1-15.904 59.744z" fill="#178BFF" p-id="1509"></path><path d="M720 801.536a32 32 0 0 1-32-32V690.24a32 32 0 1 1 64 0v79.296a32 32 0 0 1-32 32z" fill="#1DDDCB" p-id="1510"></path><path d="M719.968 722.24a32 32 0 0 1-15.36-3.936l-77.632-42.624a32.064 32.064 0 0 1-12.672-43.456 32.192 32.192 0 0 1 43.456-12.672l77.632 42.624a32.064 32.064 0 0 1-15.424 60.064z" fill="#1DDDCB" p-id="1511"></path><path d="M720.032 722.24a32 32 0 0 1-15.424-60.064l77.6-42.592a32 32 0 1 1 30.784 56.096l-77.6 42.592a31.68 31.68 0 0 1-15.36 3.968z" fill="#1DDDCB" p-id="1512"></path><path d="M304 214.848v237.696l208 118.88 208-118.88V214.848" fill="#E3FFFA" p-id="1513"></path><path d="M512 603.424c-5.568 0-11.04-1.456-15.872-4.224l-208-118.88A31.968 31.968 0 0 1 272 452.544V214.848a32 32 0 0 1 64 0v219.136l176 100.608 176-100.608V214.848a32 32 0 0 1 64 0v237.696c0 11.488-6.144 22.08-16.128 27.776l-208 118.88a31.968 31.968 0 0 1-15.872 4.224z" fill="#0066FF" p-id="1514"></path><path d="M720 214.848L512 96l-208 118.848" fill="#E3FFFA" p-id="1515"></path><path d="M719.968 246.848c-5.552 0-11.024-1.44-15.84-4.224L512 132.864l-192.128 109.76a32 32 0 1 1-31.744-55.552l208-118.848a31.936 31.936 0 0 1 31.744 0l208 118.848a32 32 0 0 1-15.904 59.776z" fill="#178BFF" p-id="1516"></path><path d="M512 444.96a32 32 0 0 1-32-32v-79.232a32 32 0 1 1 64 0v79.232a32 32 0 0 1-32 32z" fill="#1DDDCB" p-id="1517"></path><path d="M511.968 365.728c-5.376 0-10.672-1.36-15.392-3.968l-77.632-42.688a32 32 0 1 1 30.816-56.096l77.632 42.688a32 32 0 0 1-15.424 60.064z" fill="#1DDDCB" p-id="1518"></path><path d="M512.032 365.728a32 32 0 0 1-15.456-60.032l77.568-42.688a32 32 0 1 1 30.848 56.064l-77.6 42.688c-4.688 2.624-9.984 4-15.36 3.968z" fill="#1DDDCB" p-id="1519"></path></svg>