<svg t="1699974400966" class="icon" viewBox="0 0 1105 1024" version="1.1" xmlns="http://www.w3.org/2000/svg" p-id="6033" width="200" height="200"><path d="M1089.379249 730.899692a165.651692 165.651692 0 0 1-152.260923 100.667077A166.203077 166.203077 0 0 1 785.408788 600.221538a164.627692 164.627692 0 0 1 132.096-99.328 335.872 335.872 0 0 0-179.672616-297.984 37.179077 37.179077 0 0 1 4.411077-67.741538 37.257846 37.257846 0 0 1 29.459693 1.732923c137.452308 71.207385 222.208 215.748923 219.372307 371.633231a164.785231 164.785231 0 0 1 99.958154 95.389538h-0.078769a165.415385 165.415385 0 0 1-1.575385 126.976zM747.599557 882.294154a40.802462 40.802462 0 0 1 12.603077 73.491692A432.285538 432.285538 0 0 1 526.888172 1024a440.162462 440.162462 0 0 1-231.660307-66.166154 175.419077 175.419077 0 0 1-143.123693 41.747692 176.758154 176.758154 0 0 1-116.972307-71.364923 181.169231 181.169231 0 0 1-33.004308-134.380307c6.774154-47.104 32.059077-89.796923 70.498461-118.547693a177.309538 177.309538 0 0 1 249.777231 38.124308c37.966769 52.224 45.686154 120.123077 20.243693 179.278769a357.139692 357.139692 0 0 0 374.784-5.277538 39.778462 39.778462 0 0 1 30.168615-5.12zM483.722634 337.447385a164.470154 164.470154 0 0 1-142.966154-84.04677A340.440615 340.440615 0 0 0 138.870942 541.144615a37.257846 37.257846 0 0 1-36.94277 34.816 37.415385 37.415385 0 0 1-36.864-40.093538 415.507692 415.507692 0 0 1 253.952-354.540308 170.062769 170.062769 0 0 1-0.472615-12.603077C318.543557 75.618462 392.665403 0 483.722634 0c91.057231 0 165.179077 75.618462 165.179077 168.723692 0 92.947692-74.121846 168.723692-165.179077 168.723693z" fill="#5184EE" p-id="6034"></path></svg>