<svg width="600" height="600" xmlns="http://www.w3.org/2000/svg">

 <g>
  <title>Layer 1</title>
  <path stroke="#000" id="svg_3" d="m1.08946,302.58251l0,0c0,-165.74898 134.36611,-300.1151 300.11507,-300.1151l0,0c79.59543,0 155.93091,31.61916 212.21336,87.90166c56.28251,56.28252 87.90171,132.61794 87.90171,212.21344l0,0c0,165.74896 -134.36611,300.1151 -300.11507,300.1151l0,0c-165.74894,0 -300.11507,-134.36614 -300.11507,-300.1151zm150.05754,0l0,0c0,82.87447 67.1831,150.05755 150.05754,150.05755c82.8745,0 150.05754,-67.18308 150.05754,-150.05755c0,-82.87447 -67.18308,-150.05755 -150.05754,-150.05755l0,0c-82.87444,0 -150.05754,67.1831 -150.05754,150.05755z" fill="#000000"/>
  <text transform="matrix(1.78139 0 0 1.80416 10.4592 -7.66644)" stroke="#000" xml:space="preserve" text-anchor="start" font-family="Noto Sans JP" font-size="250" id="svg_4" y="269.90944" x="77.62928" fill="#000000">V</text>
  <path id="svg_5" opacity="NaN" stroke="#000" fill="#ffffff"/>
  <path id="svg_6" d="m91.62055,17.38522" opacity="NaN" stroke="#000" fill="#ffffff"/>
  <path transform="rotate(-40.8731 101.337 406.213)" stroke="#000" id="svg_7" d="m44.9007,387.33958l26.04743,6.51186c0,-23.97599 120.37018,-318.47052 43.41238,-43.41238l0,0c11.51367,0 22.55579,4.57379 30.69718,12.71519c8.1414,8.1414 12.7152,19.18351 12.7152,30.69719l0,0c0,23.97599 -144.24699,374.21474 -43.41238,43.41238l0,0c-23.97599,0 -69.45981,-25.94825 -69.45981,-49.92423zm47.75362,6.51186l0,0c0,11.98799 9.7182,21.70619 21.70619,21.70619c11.988,0 21.70619,-9.7182 21.70619,-21.70619c0,-11.98799 -9.7182,-21.70619 -21.70619,-21.70619l0,0c-11.98799,0 -21.70619,9.7182 -21.70619,21.70619z" fill="#ffffff"/>
  <path transform="rotate(80.464 289.095 74.1085)" id="svg_8" d="m232.65926,55.23486l26.04743,6.51186c0,-23.97599 120.37018,-318.47052 43.41238,-43.41238l0,0c11.51368,0 22.55579,4.57379 30.69718,12.71519c8.14141,8.1414 12.7152,19.18351 12.7152,30.69719l0,0c0,23.97599 -144.24699,374.21474 -43.41238,43.41238l0,0c-23.97599,0 -69.45981,-25.94825 -69.45981,-49.92424zm47.75362,6.51186l0,0c0,11.98799 9.7182,21.70619 21.70619,21.70619c11.988,0 21.70619,-9.7182 21.70619,-21.70619c0,-11.98799 -9.71819,-21.70619 -21.70619,-21.70619l0,0c-11.98799,0 -21.70619,9.7182 -21.70619,21.70619z" stroke="#000" fill="#ffffff"/>
  <path transform="rotate(-160.732 503.987 398.616)" id="svg_9" d="m447.55056,379.74242l26.04743,6.51186c0,-23.97599 120.37018,-318.47052 43.41238,-43.41238l0,0c11.51368,0 22.55579,4.57379 30.69718,12.71519c8.14141,8.1414 12.7152,19.18351 12.7152,30.69719l0,0c0,23.97599 -144.24699,374.21474 -43.41238,43.41238l0,0c-23.97599,0 -69.45981,-25.94825 -69.45981,-49.92424zm47.75362,6.51186l0,0c0,11.98799 9.7182,21.70619 21.70619,21.70619c11.988,0 21.70619,-9.7182 21.70619,-21.70619c0,-11.98799 -9.71819,-21.70619 -21.70619,-21.70619l0,0c-11.98799,0 -21.70619,9.7182 -21.70619,21.70619z" stroke="#000" fill="#ffffff"/>
 </g>
</svg>