<svg width="800" height="600" xmlns="http://www.w3.org/2000/svg">

 <g>
  <title>Layer 1</title>
  <path id="svg_45" d="m251.11674,296.51591l0,0c0,-90.41772 73.29806,-163.71578 163.71578,-163.71578l0,0c43.42011,0 85.06188,17.24857 115.76452,47.95123c30.70268,30.70268 47.95127,72.34441 47.95127,115.76455l0,0c0,90.41771 -73.29806,163.71578 -163.71578,163.71578l0,0c-90.41771,0 -163.71578,-73.29807 -163.71578,-163.71578zm81.85789,0l0,0c0,45.20885 36.64905,81.85789 81.85789,81.85789c45.20887,0 81.85789,-36.64904 81.85789,-81.85789c0,-45.20885 -36.64904,-81.85789 -81.85789,-81.85789l0,0c-45.20884,0 -81.85789,36.64905 -81.85789,81.85789z" stroke-width="0" stroke="#000" fill="#000000"/>
  <path id="svg_21" opacity="NaN" stroke-width="0" stroke="#000" fill="#ffffff"/>
  <g transform="translate(276.741 117.821) translate(23.2901 1.37001)" id="svg_24">
   <path id="svg_20" opacity="NaN" stroke-width="0" stroke="#000" fill="#ffffff"/>
  </g>
  <path transform="translate(276.741 117.821) translate(23.2901 1.37001)" stroke="#000" id="svg_26" d="m138.03355,119.90459l-21.28391,182.56071l21.28391,-182.56071z" opacity="NaN" stroke-width="0" fill="#ffffff"/>
  <path transform="translate(276.741 117.821) translate(23.2901 1.37001)" id="svg_29" opacity="NaN" stroke-width="0" stroke="#000" fill="#ffffff"/>
  <text font-weight="normal" font-style="normal" transform="matrix(1.53524 0 0 1.52462 -323.625 60.888)" stroke="#000" xml:space="preserve" text-anchor="start" font-family="Noto Sans JP" font-size="250" stroke-width="0" id="svg_6" y="223.70188" x="414.65782" fill="#000000">v</text>
  <path transform="rotate(86.0389 412.398 181.503)" id="svg_11" d="m397.97349,177.28337l4.43353,2.46307c1.97046,-11.20249 50.64758,-177.61448 18.5,-18.5l0,0c4.90651,0 9.61206,1.9491 13.08148,5.41853c3.46942,3.46942 5.41853,8.17497 5.41853,13.08147l0,0c0,10.21727 -53.11066,185.98893 -18.50001,18.5l0,0c-16.62125,-3.4483 -55.44609,-33.89869 -22.93353,-20.96307zm13.68353,2.46307l0,0c0,5.10863 4.14137,9.25 9.25,9.25c5.10864,0 9.25,-4.14137 9.25,-9.25c0,-5.10863 -4.14136,-9.25 -9.25,-9.25l0,0c-5.10863,0 -9.25,4.14137 -9.25,9.25z" stroke="#000" fill="#ffffff"/>
  <path transform="translate(23.2901 1.37001)" id="svg_23" d="m586.06939,361.32313" opacity="undefined" stroke="#000" fill="#ffffff"/>
  <path transform="rotate(-148.235 517.893 351.638)" id="svg_32" d="m503.46895,347.41917l4.43353,2.46307c1.97046,-11.20249 50.64758,-177.61448 18.50001,-18.5l0,0c4.9065,0 9.61205,1.9491 13.08147,5.41853c3.46943,3.46942 5.41853,8.17496 5.41853,13.08147l0,0c0,10.21726 -53.11065,185.98893 -18.5,18.5l0,0c-16.62126,-3.44831 -55.44609,-33.89869 -22.93354,-20.96307zm13.68353,2.46307l0,0c0,5.10863 4.14137,9.25 9.25001,9.25c5.10863,0 9.25,-4.14137 9.25,-9.25c0,-5.10863 -4.14137,-9.25 -9.25,-9.25l0,0c-5.10864,0 -9.25001,4.14137 -9.25001,9.25z" stroke="#000" fill="#ffffff"/>
  <path transform="rotate(-43.5424 308.435 348.367)" id="svg_33" d="m294.01102,344.14856l4.43353,2.46307c1.97046,-11.20249 50.64758,-177.61448 18.50001,-18.5l0,0c4.9065,0 9.61205,1.9491 13.08147,5.41853c3.46943,3.46942 5.41853,8.17496 5.41853,13.08147l0,0c0,10.21726 -53.11065,185.98893 -18.5,18.5l0,0c-16.62126,-3.44831 -55.44609,-33.89869 -22.93354,-20.96307zm13.68353,2.46307l0,0c0,5.10863 4.14137,9.25 9.25001,9.25c5.10863,0 9.25,-4.14137 9.25,-9.25c0,-5.10863 -4.14137,-9.25 -9.25,-9.25l0,0c-5.10864,0 -9.25001,4.14137 -9.25001,9.25z" stroke="#000" fill="#ffffff"/>
 </g>
</svg>